<?xml version="1.0" encoding="utf-8"?>
<!-- Generator: Adobe Illustrator 21.1.0, SVG Export Plug-In . SVG Version: 6.00 Build 0)  -->
<svg version="1.1" id="Layer_1" xmlns="http://www.w3.org/2000/svg" xmlns:xlink="http://www.w3.org/1999/xlink" x="0px" y="0px"
	 viewBox="0 0 84.1 81.3" style="enable-background:new 0 0 84.1 81.3;" xml:space="preserve">
<style type="text/css">
	.st0{fill:#FFFFFF;}
</style>
<g>
	<path class="st0" d="M37.4,40c1.8,0.4,3.3,1.3,4.3,2.9c0.9,1.5,1.4,3.1,1.5,4.9c0.1,1.5,0.1,2.9-0.1,4.4c-0.7,3.9-2.9,6.5-6.6,7.9
		c-1.8,0.7-3.6,1.1-5.6,1.1c-6.6,0-13.2,0-19.7,0c-0.6,0-0.6,0-0.6-0.6c0-12.6,0-25.2,0-37.8c0-0.6,0-0.6,0.6-0.6
		c6.9,0,13.8,0,20.7,0c2.8,0,5.3,1,7.3,3c1.6,1.6,2.4,3.5,2.6,5.7c0.2,1.4,0.2,2.8-0.2,4.1c-0.5,2.2-1.8,3.7-3.8,4.6
		c-0.2,0.1-0.4,0.2-0.6,0.3c-0.3,0.1-0.6,0.1-0.9,0.2C36.8,40,37.1,40,37.4,40z M25.5,43.8c-1.8,0-3.5,0-5.3,0c-0.6,0-0.6,0-0.6,0.6
		c0,3.1,0,6.1,0,9.2c0,0.7,0,0.7,0.6,0.7c3.3,0,6.6,0,9.9,0c0.4,0,0.8,0,1.1-0.1c2.1-0.3,3.3-1.4,3.6-3.5c0.2-1,0.2-2,0-2.9
		c-0.3-2.5-2-4-4.5-4C28.8,43.8,27.2,43.8,25.5,43.8z M19.6,37.7c0.2,0,0.3,0,0.5,0c3.5,0,7,0,10.5,0c1.5,0,2.4-0.7,2.8-2.1
		c0.3-1,0.4-2.1,0.2-3.2c-0.1-0.6-0.2-1.2-0.4-1.7c-0.4-1-1.2-1.7-2.4-1.7c-3.6,0-7.2,0-10.8,0c-0.2,0-0.3,0-0.5,0
		C19.6,32,19.6,34.8,19.6,37.7z"/>
	<path class="st0" d="M53.3,49c-0.1,2.4,0.8,4.9,3.3,6s5,1,7.4,0c1.3-0.5,2.1-1.6,2.4-3c0.1-0.3,0.2-0.4,0.5-0.4c2,0,3.9,0,5.9,0
		c0.4,0,0.5,0.2,0.5,0.5c-0.3,4.4-2.5,7.4-6.8,8.8c-2.7,0.9-5.4,1.1-8.2,0.9c-1.8-0.1-3.5-0.4-5.1-1.1c-3.9-1.5-6.3-4.3-7.5-8.2
		c-1.5-4.8-0.9-9.4,1.5-13.8c1.9-3.5,5-5.6,8.9-6.4c2.7-0.5,5.3-0.5,8,0.1c4.3,1,7.1,3.7,8.5,7.8c0.7,1.9,1,3.9,1,5.9
		c0,0.8,0,1.6,0,2.4c0,0.3-0.1,0.5-0.5,0.4c-0.1,0-0.3,0-0.5,0c-6.2,0-12.5,0-18.7,0C53.8,49,53.6,49,53.3,49z M53.2,43.8
		c4.3,0,8.5,0,12.8,0c0.1-1.5-0.7-3.5-1.8-4.5c-1.2-1.1-2.7-1.5-4.4-1.4C55.8,37.8,53.7,40.9,53.2,43.8z"/>
	<path class="st0" d="M59.6,29.2c-2.5,0-5,0-7.5,0c-0.6,0-0.6,0-0.6-0.6c0-1.2,0-2.4,0-3.7c0-0.4,0.1-0.5,0.5-0.5c5,0,10.1,0,15.1,0
		c0.4,0,0.5,0.1,0.5,0.5c0,1.2,0,2.5,0,3.7c0,0.4-0.1,0.5-0.5,0.5C64.6,29.2,62.1,29.2,59.6,29.2z"/>
	<path class="st0" d="M37.4,40c-0.3,0-0.7-0.1-1.1-0.1c0.4-0.1,0.6-0.2,0.9-0.2C37.3,39.8,37.4,39.9,37.4,40z"/>
</g>
</svg>
