<?xml version="1.0" encoding="utf-8"?>
<!-- Generator: Adobe Illustrator 21.1.0, SVG Export Plug-In . SVG Version: 6.00 Build 0)  -->
<svg version="1.1" id="Layer_1" xmlns="http://www.w3.org/2000/svg" xmlns:xlink="http://www.w3.org/1999/xlink" x="0px" y="0px"
	 viewBox="0 0 84.1 81.3" style="enable-background:new 0 0 84.1 81.3;" xml:space="preserve">
<style type="text/css">
	.st0{fill:#FFFFFF;}
</style>
<g>
	<path class="st0" d="M31.6,71.7c0,2.5,0,5.1,0,7.7c0,1.5-1.4,2.3-3.1,1.7c-4.5-1.5-8.6-3.7-12.2-6.5C7.5,67.7,2.1,58.8,0.5,47.8
		C-2.6,26.9,10.3,7.2,30.9,1.5c21.7-6,44.4,6.2,51.3,27.6c6.9,21.5-4.9,44.8-26.3,51.9c-2.1,0.7-3.3-0.2-3.3-2.4c0-3.1,0-6.3,0-9.4
		c0.1-3.3-0.2-6.5-2.7-9.2c1.6-0.3,3-0.5,4.4-0.8c4.5-1,8.5-2.9,11.3-6.9c2-2.9,2.9-6.1,3.2-9.5c0.1-2.1,0.2-4.2-0.1-6.3
		c-0.3-2.9-1.6-5.5-3.5-7.7c-0.4-0.5-0.4-0.8-0.3-1.4c1-3.3,0.7-6.5-0.5-9.7c-0.1-0.3-0.7-0.6-1-0.6c-2,0-3.9,0.6-5.6,1.5
		c-1.5,0.7-3,1.7-4.5,2.4c-0.4,0.2-0.9,0.3-1.3,0.2c-6.6-1.6-13.2-1.6-19.8,0c-0.4,0.1-1,0-1.3-0.3c-2.8-1.7-5.6-3.3-8.8-3.8
		c-0.3,0-0.5-0.1-0.8-0.1c-1-0.2-1.4,0.2-1.7,1.2c-0.9,3.1-1.2,6.2-0.2,9.4c0.1,0.3,0,0.7-0.2,0.9c-3.7,4.4-4.4,9.5-3.7,14.9
		c0.5,3.5,1.5,6.7,3.7,9.5c2.7,3.4,6.4,5.2,10.6,6.1c1.4,0.3,2.9,0.6,4.5,0.8c-1.4,1.5-2.1,3.3-2.5,5.2c0,0.2-0.4,0.4-0.6,0.5
		c-4.7,2-8.9,0.7-11.6-3.6c-1.3-2.1-3.1-3.7-5.6-4.3c-0.6-0.1-1.3-0.1-2,0c-0.9,0.2-1,0.7-0.4,1.4c0.3,0.3,0.6,0.6,1,0.8
		c2.2,1.3,3.7,3.4,4.6,5.7c1.6,3.9,4.6,5.6,8.6,5.9C27.7,72,29.5,71.8,31.6,71.7z"/>
</g>
</svg>
