<?xml version="1.0" encoding="utf-8"?>
<!-- Generator: Adobe Illustrator 21.1.0, SVG Export Plug-In . SVG Version: 6.00 Build 0)  -->
<svg version="1.1" id="Layer_1" xmlns="http://www.w3.org/2000/svg" xmlns:xlink="http://www.w3.org/1999/xlink" x="0px" y="0px"
	 viewBox="0 0 84.1 81.3" style="enable-background:new 0 0 84.1 81.3;" xml:space="preserve">
<style type="text/css">
	.st0{fill:#FFFFFF;}
</style>
<path class="st0" d="M82.9,40.9c0,11.6,0,23.1,0,34.7c0,1.7-0.4,3.1-1.6,4.3c-1.2,1.3-2.6,2-4.4,2c-23.3,0-46.7,0-70,0
	c-3.2,0-5.8-2.6-5.9-5.7c0-0.3,0-0.6,0-1c0-23,0-45.9,0-68.9c0-1,0.1-2,0.6-2.9C2.7,1.2,4.5,0,6.9,0c14.5,0,29,0,43.5,0
	c8.8,0,17.7,0,26.5,0c3,0,5.5,2.1,5.9,5.1c0.1,0.4,0.1,0.8,0.1,1.2C82.9,17.8,82.9,29.4,82.9,40.9z M70.8,69.7c0-0.2,0-0.3,0-0.5
	c0-3.6,0-7.1,0-10.7c0-4.4,0-8.8-0.1-13.2c-0.1-2.8-0.5-5.5-1.5-8.1c-1.3-3.2-3.5-5.4-6.7-6.5c-2.2-0.8-4.5-1-6.8-0.9
	c-4.6,0.2-8.4,2-10.9,6.1c-0.1,0.1-0.2,0.1-0.3,0.3c0-1.7,0-3.3,0-4.9c0-0.4-0.1-0.5-0.5-0.5c-3.6,0-7.1,0-10.7,0
	c-0.1,0-0.3,0-0.4,0c0,13,0,26,0,39c4,0,8,0,12.1,0c0-0.2,0-0.3,0-0.5c0-6.4,0-12.7,0-19.1c0-1.9,0.1-3.7,0.8-5.5
	c0.6-1.7,1.7-3,3.5-3.7c1.1-0.4,2.3-0.5,3.5-0.5c2.5,0.1,4.3,1.4,5.2,3.7c0.6,1.8,0.7,3.6,0.7,5.5c0,6.5,0,13.1,0,19.6
	c0,0.2,0,0.3,0,0.5C62.7,69.7,66.7,69.7,70.8,69.7z M25.2,30.7c-4,0-8,0-12.1,0c0,13,0,26,0,39c4,0,8,0,12.1,0
	C25.2,56.7,25.2,43.7,25.2,30.7z M12.2,18.3c0,3.9,3.1,7,7,7.1c3.9,0,7.1-3.1,7.1-7c0-3.9-3.1-7.1-7-7.1
	C15.4,11.2,12.2,14.4,12.2,18.3z"/>
</svg>
